<mxfile host="app.diagrams.net" modified="2024-01-09T10:59:52.037Z" agent="Mozilla/5.0 (Windows NT 10.0; Win64; x64) AppleWebKit/537.36 (KHTML, like Gecko) Chrome/118.0.0.0 YaBrowser/23.11.0.0 Safari/537.36" etag="WwiOuI9rxyKU2wVMUfWb" version="22.1.17" type="device">
  <diagram name="Страница — 1" id="2csPblfNcjqR9bzWrUpw">
    <mxGraphModel dx="1242" dy="575" grid="1" gridSize="10" guides="1" tooltips="1" connect="1" arrows="1" fold="1" page="1" pageScale="1" pageWidth="827" pageHeight="1169" math="0" shadow="0">
      <root>
        <mxCell id="0" />
        <mxCell id="1" parent="0" />
        <mxCell id="ACilnckIRsE9TaD1o917-1" value="Генерация аудиофайла из текста&amp;nbsp;" style="html=1;whiteSpace=wrap;" vertex="1" parent="1">
          <mxGeometry x="360" y="80" width="110" height="60" as="geometry" />
        </mxCell>
        <mxCell id="ACilnckIRsE9TaD1o917-2" value="Логин пользователя" style="html=1;verticalAlign=bottom;endArrow=block;curved=0;rounded=0;" edge="1" parent="1">
          <mxGeometry width="80" relative="1" as="geometry">
            <mxPoint x="220" y="110" as="sourcePoint" />
            <mxPoint x="360" y="109.71000000000001" as="targetPoint" />
            <mxPoint as="offset" />
          </mxGeometry>
        </mxCell>
        <mxCell id="ACilnckIRsE9TaD1o917-3" value="Пароль пользователя" style="html=1;verticalAlign=bottom;endArrow=block;curved=0;rounded=0;" edge="1" parent="1">
          <mxGeometry width="80" relative="1" as="geometry">
            <mxPoint x="220" y="130" as="sourcePoint" />
            <mxPoint x="360" y="130" as="targetPoint" />
          </mxGeometry>
        </mxCell>
        <mxCell id="ACilnckIRsE9TaD1o917-4" value="Аудиофайл" style="html=1;verticalAlign=bottom;endArrow=block;curved=0;rounded=0;" edge="1" parent="1">
          <mxGeometry width="80" relative="1" as="geometry">
            <mxPoint x="470" y="109.71000000000001" as="sourcePoint" />
            <mxPoint x="560" y="110" as="targetPoint" />
          </mxGeometry>
        </mxCell>
        <mxCell id="ACilnckIRsE9TaD1o917-5" value="Текст" style="html=1;verticalAlign=bottom;endArrow=block;curved=0;rounded=0;" edge="1" parent="1">
          <mxGeometry width="80" relative="1" as="geometry">
            <mxPoint x="220" y="90" as="sourcePoint" />
            <mxPoint x="360" y="90" as="targetPoint" />
          </mxGeometry>
        </mxCell>
        <mxCell id="ACilnckIRsE9TaD1o917-6" value="Выбор паттерна&lt;br&gt;для синтеза&amp;nbsp;" style="html=1;verticalAlign=bottom;endArrow=block;curved=0;rounded=0;entryX=0.5;entryY=0;entryDx=0;entryDy=0;" edge="1" parent="1" target="ACilnckIRsE9TaD1o917-1">
          <mxGeometry x="0.4286" width="80" relative="1" as="geometry">
            <mxPoint x="415" y="10" as="sourcePoint" />
            <mxPoint x="414.71" y="60" as="targetPoint" />
            <mxPoint as="offset" />
          </mxGeometry>
        </mxCell>
        <mxCell id="ACilnckIRsE9TaD1o917-7" value="А0" style="text;html=1;align=center;verticalAlign=middle;resizable=0;points=[];autosize=1;strokeColor=none;fillColor=none;" vertex="1" parent="1">
          <mxGeometry x="440" y="120" width="40" height="30" as="geometry" />
        </mxCell>
        <mxCell id="ACilnckIRsE9TaD1o917-8" value="Нейросеть" style="html=1;verticalAlign=bottom;endArrow=block;curved=0;rounded=0;entryX=0.5;entryY=1;entryDx=0;entryDy=0;" edge="1" parent="1" target="ACilnckIRsE9TaD1o917-1">
          <mxGeometry x="-0.4286" width="80" relative="1" as="geometry">
            <mxPoint x="415" y="210" as="sourcePoint" />
            <mxPoint x="500" y="210" as="targetPoint" />
            <mxPoint as="offset" />
          </mxGeometry>
        </mxCell>
      </root>
    </mxGraphModel>
  </diagram>
</mxfile>
